<?xml version="1.0" standalone="no"?>
<!DOCTYPE svg PUBLIC "-//W3C//DTD SVG 20010904//EN"
 "http://www.w3.org/TR/2001/REC-SVG-20010904/DTD/svg10.dtd">
<svg version="1.0" xmlns="http://www.w3.org/2000/svg"
 width="500.000000pt" height="500.000000pt" viewBox="0 0 500.000000 500.000000"
 preserveAspectRatio="xMidYMid meet">
<metadata>
Created by potrace 1.11, written by Peter Selinger 2001-2013
</metadata>
<g transform="translate(0.000000,500.000000) scale(0.100000,-0.100000)"
fill="#000000" stroke="none">
<path d="M3067 4174 c-4 -4 -7 -119 -7 -256 0 -153 -4 -257 -10 -269 -10 -18
-27 -19 -555 -19 -481 0 -545 -2 -559 -16 -14 -13 -16 -51 -16 -265 0 -154 4
-258 10 -270 10 -18 27 -19 565 -19 l555 0 0 -249 c0 -137 -3 -256 -6 -265 -5
-14 -62 -16 -539 -16 -323 0 -544 -4 -559 -10 l-26 -10 0 -548 c0 -413 -3
-551 -12 -560 -9 -9 -83 -12 -269 -12 -142 0 -260 -4 -263 -8 -3 -5 120 -133
272 -285 l278 -277 271 0 c207 0 274 3 280 13 4 6 10 260 13 562 l5 550 548 5
c528 5 549 6 563 24 11 16 14 69 14 267 0 136 -4 259 -9 272 -5 14 -124 141
-264 283 l-255 259 257 3 c226 2 257 4 269 19 19 26 17 514 -2 551 -20 37
-540 554 -549 546z"/>
</g>
</svg>
